<svg width="460" height="460" viewBox="0 0 460 460" fill="none" xmlns="http://www.w3.org/2000/svg">
<g clip-path="url(#clip0_878_93)">
<path d="M460 0H0V460H460V0Z" fill="#FEFEFE"/>
<path fill-rule="evenodd" clip-rule="evenodd" d="M14.8386 14.8389H118.709V118.71H14.8386V14.8389ZM29.6773 29.6775V103.871H103.871V29.6775H29.6773Z" fill="#222222"/>
<path fill-rule="evenodd" clip-rule="evenodd" d="M44.5159 44.5166H89.0319V89.0326H44.5159V44.5166Z" fill="#222222"/>
<path fill-rule="evenodd" clip-rule="evenodd" d="M445.16 14.8389V118.71H341.29V14.8389L445.16 14.8389ZM430.322 29.6775L356.128 29.6775V103.871H430.322V29.6775Z" fill="#222222"/>
<path fill-rule="evenodd" clip-rule="evenodd" d="M415.483 44.5166V89.0326H370.967V44.5166H415.483Z" fill="#222222"/>
<path fill-rule="evenodd" clip-rule="evenodd" d="M14.8386 445.16L14.8386 341.289H118.709V445.16H14.8386ZM29.6773 430.321H103.871V356.128H29.6773L29.6773 430.321Z" fill="#222222"/>
<path fill-rule="evenodd" clip-rule="evenodd" d="M44.5159 415.482V370.966H89.0319V415.482H44.5159Z" fill="#222222"/>
<path fill-rule="evenodd" clip-rule="evenodd" d="M148.387 14.8389V29.6775H163.225V59.3549H178.064V14.8389H148.387ZM207.741 14.8389V29.6775H192.903V44.5162H207.741V59.3549H192.903V74.1936H207.741V59.3549H222.58V74.1936H237.419V89.0323H267.096V103.871H252.258V148.387H207.741V192.903H222.58V207.742H237.419V222.58H267.096V237.419H252.258V252.258H281.935V267.096H296.774V281.935H267.096V296.774H296.774V311.612H311.612V326.451H296.774V341.29H267.096V356.129H252.258V341.29H237.419V356.129H222.58V370.967H237.419V385.806H222.58V400.645H192.903V370.967H178.064V385.806H163.225V370.967H148.387V356.129H163.225V341.29H178.064V356.129H207.741V311.612H222.58V326.451H267.096V311.612H252.258V267.096H207.741V237.419H178.064V222.58H163.225V207.742H192.903V148.387H178.064V163.226H163.225V192.903H148.387V178.064H133.548V148.387H118.709V133.548H44.516V148.387H29.6773V133.548H14.8386V148.387H29.6773V163.226H14.8386V178.064H29.6773V207.742H14.8386V222.58H29.6773V207.742H44.516V222.58H59.3547V237.419H74.1933V252.258H59.3547V267.096H44.516V252.258H29.6773V237.419H14.8386V326.451H29.6773V281.935H44.516V296.774H59.3547V326.451H133.548V341.29H148.387V356.129H133.548V415.483H148.387V430.322H133.548V445.161H148.387V430.322H178.064V415.483H222.58V430.322H237.419V445.161H252.258V430.322H267.096V445.161H356.128V430.322H341.29V415.483H370.967V385.806H385.806V356.129H400.644V385.806H445.16V356.129H415.483V341.29H430.322V311.612H385.806V296.774H415.483V281.935H430.322V296.774H445.16V267.096H415.483V281.935H400.644V267.096H385.806V237.419H415.483V252.258H445.16V222.58H430.322V207.742H415.483V222.58H400.644V207.742H370.967V222.58H356.128V237.419H341.29V252.258H311.612V237.419H326.451V222.58H341.29V192.903H356.128V178.064H341.29V192.903H326.451V207.742H296.774V222.58H267.096V207.742H252.258V178.064H296.774V192.903H311.612V178.064H326.451V163.226H370.967V148.387H385.806V178.064H370.967V192.903H400.644V178.064H415.483V163.226H430.322V148.387H415.483V133.548H341.29V148.387H326.451V163.226H296.774V133.548H311.612V118.71H326.451V59.3549H311.612V44.5162H326.451V29.6775H311.612V44.5162H281.935V29.6775H296.774V14.8389H281.935V29.6775H252.258V14.8389H207.741ZM133.548 44.5162V133.548H148.387V148.387H163.225V118.71H178.064V103.871H163.225V89.0323H178.064V74.1936H148.387V44.5162H133.548ZM222.58 44.5162V59.3549H237.419V44.5162H222.58ZM252.258 44.5162V74.1936H267.096V89.0323H296.774V118.71H281.935V103.871H267.096V118.71H281.935V133.548H267.096V148.387H252.258V163.226H281.935V133.548H296.774V118.71H311.612V59.3549H296.774V74.1936H267.096V59.3549H281.935V44.5162H252.258ZM148.387 103.871V118.71H163.225V103.871H148.387ZM192.903 103.871V118.71H207.741V103.871H192.903ZM222.58 103.871V133.548H237.419V103.871H222.58ZM59.3547 148.387V163.226H44.516V192.903H74.1933V207.742H59.3547V222.58H89.032V252.258H118.709V267.096H74.1933V281.935H133.548V326.451H192.903V311.612H207.741V281.935H192.903V252.258H148.387V192.903H133.548V178.064H103.871V163.226H118.709V148.387H59.3547ZM400.644 148.387V163.226H415.483V148.387H400.644ZM59.3547 163.226V178.064H74.1933V192.903H89.032V207.742H118.709V192.903H103.871V178.064H74.1933V163.226H59.3547ZM222.58 178.064V192.903H237.419V178.064H222.58ZM430.322 178.064V192.903H445.16V178.064H430.322ZM103.871 222.58V237.419H133.548V222.58H103.871ZM296.774 222.58V237.419H281.935V252.258H296.774V267.096H311.612V252.258H296.774V237.419H311.612V222.58H296.774ZM370.967 222.58V237.419H385.806V222.58H370.967ZM222.58 237.419V252.258H237.419V237.419H222.58ZM133.548 252.258V267.096H148.387V281.935H163.225V296.774H148.387V311.612H163.225V296.774H178.064V311.612H192.903V296.774H178.064V281.935H163.225V267.096H148.387V252.258H133.548ZM341.29 252.258V267.096H356.128V281.935H311.612V311.612H326.451V296.774H356.128V281.935H370.967V296.774H385.806V281.935H370.967V267.096H356.128V252.258H341.29ZM74.1933 296.774V311.612H118.709V296.774H74.1933ZM222.58 296.774V311.612H237.419V296.774H222.58ZM326.451 326.451V370.967H370.967V326.451H326.451ZM385.806 326.451V341.29H415.483V326.451H385.806ZM296.774 341.29V356.129H281.935V370.967H252.258V356.129H237.419V370.967H252.258V385.806H237.419V400.645H222.58V415.483H237.419V430.322H252.258V415.483H267.096V430.322H281.935V415.483H296.774V400.645H311.612V415.483H341.29V385.806H326.451V400.645H311.612V385.806H296.774V400.645H281.935V370.967H311.612V341.29H296.774ZM341.29 341.29V356.129H356.128V341.29H341.29ZM163.225 400.645V415.483H178.064V400.645H163.225ZM237.419 400.645V415.483H252.258V400.645H237.419ZM267.096 400.645V415.483H281.935V400.645H267.096ZM400.644 400.645V415.483H385.806V430.322H370.967V445.161H415.483V415.483H430.322V430.322H445.16V415.483H430.322V400.645H400.644ZM192.903 430.322V445.161H207.741V430.322H192.903Z" fill="#222222"/>
</g>
<defs>
<clipPath id="clip0_878_93">
<rect width="460" height="460" fill="white"/>
</clipPath>
</defs>
</svg>
