<svg width="40" height="40" viewBox="0 0 40 40" fill="none" xmlns="http://www.w3.org/2000/svg">
<path d="M13.698 3.98854C11.9132 4.07269 10.6944 4.35757 9.62886 4.77608C8.52623 5.20592 7.59148 5.78253 6.66149 6.71587C5.73163 7.64921 5.15879 8.58451 4.73217 9.68909C4.31924 10.7568 4.03939 11.9767 3.96055 13.7624C3.88171 15.5482 3.86424 16.1223 3.87304 20.6776C3.88171 25.2326 3.90184 25.8036 3.98837 27.5931C4.07364 29.3775 4.3574 30.596 4.77606 31.6618C5.2066 32.7646 5.78251 33.6989 6.71628 34.6292C7.64991 35.5594 8.58452 36.1309 9.69162 36.5582C10.7585 36.9706 11.9787 37.2517 13.7641 37.3298C15.5496 37.4081 16.1243 37.4263 20.6782 37.4174C25.2321 37.4088 25.8055 37.3885 27.5945 37.3037C29.3838 37.2188 30.5957 36.933 31.662 36.5163C32.7648 36.0849 33.6998 35.5098 34.6294 34.5759C35.5589 33.6419 36.1314 32.7059 36.5577 31.6007C36.9711 30.5339 37.2519 29.3139 37.3293 27.5296C37.4076 25.7391 37.4261 25.1676 37.4174 20.6131C37.4086 16.0585 37.388 15.4875 37.3032 13.6987C37.2183 11.9098 36.9342 10.6951 36.5158 9.62856C36.0847 8.5258 35.5093 7.59218 34.5761 6.66122C33.6428 5.73025 32.7059 5.15825 31.6013 4.73289C30.5337 4.31983 29.3143 4.03844 27.5288 3.96128C25.7433 3.88412 25.1687 3.86413 20.6131 3.87307C16.0575 3.88174 15.4871 3.90131 13.698 3.98854ZM13.894 34.3121C12.2585 34.241 11.3704 33.9692 10.7786 33.7418C9.99495 33.4399 9.43665 33.0749 8.84689 32.4907C8.257 31.9067 7.89481 31.3465 7.58882 30.5645C7.35902 29.9727 7.08224 29.0856 7.00578 27.4501C6.92261 25.6825 6.90513 25.1518 6.89535 20.6734C6.88556 16.1951 6.90276 15.6649 6.9802 13.8966C7.05009 12.2625 7.32351 11.3735 7.55052 10.7819C7.85246 9.99731 8.21618 9.43999 8.8016 8.85066C9.38703 8.26119 9.94561 7.89817 10.7283 7.59218C11.3196 7.3614 12.2065 7.087 13.8413 7.00914C15.6103 6.92527 16.1404 6.9085 20.6181 6.89871C25.0959 6.88893 25.6273 6.9057 27.397 6.9837C29.0311 7.05471 29.9206 7.32547 30.5114 7.55402C31.2953 7.85596 31.8534 8.21856 32.4427 8.80509C33.0322 9.39135 33.3955 9.94797 33.7015 10.7323C33.9325 11.3218 34.2071 12.2084 34.2842 13.8443C34.3684 15.6133 34.3875 16.1438 34.3955 20.6211C34.4036 25.0984 34.3878 25.6301 34.3102 27.3978C34.239 29.0333 33.9678 29.9216 33.7399 30.5142C33.438 31.2975 33.0741 31.8561 32.4883 32.4452C31.9026 33.0344 31.3447 33.3972 30.5616 33.7032C29.9712 33.9337 29.0831 34.2088 27.4497 34.2867C25.6806 34.3699 25.1505 34.3873 20.6711 34.3971C16.1917 34.4069 15.663 34.3887 13.894 34.3121ZM27.5688 11.68C27.5695 12.0782 27.6882 12.4672 27.91 12.7979C28.1317 13.1285 28.4466 13.386 28.8147 13.5377C29.1828 13.6894 29.5877 13.7286 29.978 13.6502C30.3684 13.5718 30.7267 13.3794 31.0077 13.0973C31.2887 12.8153 31.4798 12.4562 31.5567 12.0656C31.6336 11.6749 31.593 11.2702 31.4399 10.9027C31.2868 10.5352 31.0281 10.2213 30.6966 10.0008C30.3651 9.78022 29.9757 9.66296 29.5775 9.66379C29.0438 9.6649 28.5324 9.87792 28.1557 10.256C27.779 10.6341 27.5679 11.1463 27.5688 11.68ZM12.0323 20.662C12.0417 25.4192 15.9052 29.2668 20.6613 29.2578C25.4176 29.2487 29.2679 25.3856 29.2589 20.6285C29.2499 15.8713 25.3855 12.0227 20.6286 12.032C15.8717 12.0414 12.0234 15.9054 12.0323 20.662ZM15.0538 20.656C15.0516 19.5502 15.3774 18.4685 15.99 17.5478C16.6025 16.6271 17.4744 15.9087 18.4952 15.4835C19.5161 15.0583 20.6401 14.9453 21.7252 15.1589C22.8102 15.3725 23.8076 15.903 24.5911 16.6834C25.3746 17.4638 25.9091 18.4591 26.127 19.5433C26.3449 20.6274 26.2364 21.7519 25.8153 22.7744C25.3941 23.7969 24.6792 24.6716 23.7609 25.2878C22.8427 25.9041 21.7623 26.2341 20.6564 26.2364C19.9221 26.2379 19.1947 26.0948 18.5157 25.8152C17.8367 25.5355 17.2194 25.1249 16.6992 24.6067C16.1789 24.0885 15.7658 23.4729 15.4835 22.795C15.2012 22.1172 15.0552 21.3903 15.0538 20.656Z" fill="#222222"/>
</svg>
