<svg width="449" height="449" viewBox="0 0 449 449" fill="none" xmlns="http://www.w3.org/2000/svg">
<g clip-path="url(#clip0_878_112)">
<path d="M449 0H0V449H449V0Z" fill="#FEFEFE"/>
<path fill-rule="evenodd" clip-rule="evenodd" d="M14.4839 14.4834H115.871V115.87H14.4839V14.4834ZM28.9677 28.9672V101.386H101.387V28.9672H28.9677Z" fill="#222222"/>
<path fill-rule="evenodd" clip-rule="evenodd" d="M43.4517 43.4512H86.9032V86.9027H43.4517V43.4512Z" fill="#222222"/>
<path fill-rule="evenodd" clip-rule="evenodd" d="M434.515 14.4834V115.87H333.128V14.4834L434.515 14.4834ZM420.032 28.9672L347.612 28.9672V101.386H420.032V28.9672Z" fill="#222222"/>
<path fill-rule="evenodd" clip-rule="evenodd" d="M405.548 43.4512V86.9027H362.096V43.4512H405.548Z" fill="#222222"/>
<path fill-rule="evenodd" clip-rule="evenodd" d="M14.4839 434.515L14.4839 333.128H115.871V434.515H14.4839ZM28.9677 420.031H101.387V347.612H28.9677L28.9677 420.031Z" fill="#222222"/>
<path fill-rule="evenodd" clip-rule="evenodd" d="M43.4517 405.547V362.095H86.9032V405.547H43.4517Z" fill="#222222"/>
<path fill-rule="evenodd" clip-rule="evenodd" d="M144.838 14.4834V28.9672H159.322V43.4511H130.355V130.354H144.838V144.838H159.322V159.322H144.838V173.806H130.355V188.29H144.838V202.773H173.806V217.257H188.29V202.773H202.774V188.29H217.258V202.773H231.742V217.257H260.709V231.741H246.225V246.225H260.709V260.709H275.193V246.225H260.709V231.741H289.677V246.225H304.161V260.709H289.677V275.193H260.709V289.676H289.677V304.16H246.225V260.709H202.774V231.741H159.322V217.257H130.355V202.773H115.871V188.29H101.387V202.773H115.871V217.257H86.9031V173.806H72.4193V159.322H101.387V173.806H115.871V159.322H101.387V144.838H115.871V130.354H43.4516V144.838H57.9354V188.29H72.4193V246.225H43.4516V231.741H57.9354V202.773H28.9677V188.29H43.4516V173.806H28.9677V159.322H14.4839V202.773H28.9677V217.257H14.4839V246.225H28.9677V260.709H14.4839V318.644H28.9677V260.709H43.4516V318.644H86.9031V304.16H72.4193V246.225H86.9031V275.193H101.387V289.676H115.871V304.16H101.387V318.644H130.355V333.128H144.838V304.16H159.322V333.128H173.806V362.096H159.322V376.579H144.838V347.612H130.355V405.547H144.838V391.063H159.322V376.579H188.29V362.096H202.774V347.612H188.29V333.128H202.774V318.644H188.29V304.16H217.258V318.644H231.742V333.128H246.225V347.612H289.677V333.128H304.161V362.096H275.193V391.063H260.709V376.579H246.225V362.096H231.742V347.612H217.258V362.096H231.742V376.579H217.258V391.063H231.742V405.547H246.225V420.031H217.258V405.547H188.29V391.063H173.806V405.547H188.29V420.031H217.258V434.515H260.709V405.547H289.677V434.515H347.612V420.031H333.128V405.547H362.096V376.579H376.58V347.612H391.064V376.579H434.515V347.612H405.548V333.128H420.031V304.16H376.58V289.676H405.548V275.193H420.031V289.676H434.515V260.709H405.548V275.193H391.064V260.709H376.58V231.741H405.548V246.225H434.515V217.257H420.031V202.773H405.548V217.257H391.064V202.773H362.096V217.257H347.612V231.741H333.128V246.225H304.161V231.741H318.645V217.257H333.128V188.29H347.612V173.806H333.128V188.29H318.645V202.773H289.677V217.257H260.709V202.773H246.225V173.806H289.677V188.29H304.161V173.806H318.645V159.322H362.096V144.838H376.58V173.806H362.096V188.29H391.064V173.806H405.548V159.322H420.031V144.838H405.548V130.354H333.128V144.838H318.645V159.322H289.677V130.354H304.161V115.87H318.645V57.9349H304.161V43.4511H318.645V28.9672H304.161V43.4511H275.193V28.9672H289.677V14.4834H275.193V28.9672H246.225V14.4834H202.774V28.9672H188.29V14.4834H144.838ZM173.806 28.9672V43.4511H188.29V72.4188H173.806V57.9349H159.322V72.4188H173.806V86.9026H188.29V72.4188H202.774V130.354H188.29V144.838H246.225V159.322H275.193V144.838H246.225V101.386H260.709V130.354H275.193V101.386H289.677V115.87H304.161V57.9349H289.677V72.4188H260.709V57.9349H275.193V43.4511H246.225V72.4188H260.709V86.9026H231.742V72.4188H217.258V57.9349H231.742V43.4511H217.258V57.9349H202.774V43.4511H188.29V28.9672H173.806ZM260.709 86.9026V101.386H275.193V86.9026H260.709ZM144.838 101.386V130.354H159.322V144.838H173.806V115.87H188.29V101.386H173.806V115.87H159.322V101.386H144.838ZM217.258 101.386V130.354H231.742V101.386H217.258ZM14.4839 130.354V144.838H28.9677V130.354H14.4839ZM391.064 144.838V159.322H405.548V144.838H391.064ZM173.806 159.322V173.806H159.322V188.29H188.29V159.322H173.806ZM217.258 173.806V188.29H231.742V173.806H217.258ZM420.031 173.806V188.29H434.515V173.806H420.031ZM28.9677 217.257V231.741H43.4516V217.257H28.9677ZM289.677 217.257V231.741H304.161V217.257H289.677ZM362.096 217.257V231.741H376.58V217.257H362.096ZM101.387 231.741V246.225H115.871V260.709H101.387V275.193H115.871V289.676H130.355V304.16H144.838V289.676H159.322V304.16H188.29V289.676H202.774V260.709H188.29V275.193H173.806V246.225H159.322V231.741H144.838V246.225H159.322V275.193H144.838V260.709H130.355V231.741H101.387ZM217.258 231.741V246.225H231.742V231.741H217.258ZM333.128 246.225V260.709H347.612V275.193H304.161V304.16H289.677V318.644H246.225V333.128H289.677V318.644H304.161V304.16H318.645V289.676H347.612V275.193H362.096V289.676H376.58V275.193H362.096V260.709H347.612V246.225H333.128ZM115.871 260.709V275.193H130.355V289.676H144.838V275.193H130.355V260.709H115.871ZM217.258 289.676V304.16H231.742V289.676H217.258ZM173.806 318.644V333.128H188.29V318.644H173.806ZM318.645 318.644V362.096H362.096V318.644H318.645ZM376.58 318.644V333.128H405.548V318.644H376.58ZM333.128 333.128V347.612H347.612V333.128H333.128ZM231.742 376.579V391.063H246.225V405.547H260.709V391.063H246.225V376.579H231.742ZM289.677 376.579V391.063H304.161V405.547H333.128V376.579H318.645V391.063H304.161V376.579H289.677ZM391.064 391.063V405.547H376.58V420.031H362.096V434.515H405.548V405.547H420.031V420.031H434.515V405.547H420.031V391.063H391.064ZM130.355 420.031V434.515H159.322V420.031H130.355Z" fill="#222222"/>
</g>
<defs>
<clipPath id="clip0_878_112">
<rect width="449" height="449" fill="white"/>
</clipPath>
</defs>
</svg>
