<svg width="40" height="40" viewBox="0 0 40 40" fill="none" xmlns="http://www.w3.org/2000/svg">
<path d="M38.3157 13.3049C38.3157 13.3049 37.9504 10.7816 36.8253 9.66333C35.408 8.20097 33.8153 8.20097 33.0701 8.11495C27.8546 7.74219 20.0079 7.74219 20.0079 7.74219H19.9933C19.9933 7.74219 12.1468 7.74219 6.90119 8.11495C6.17061 8.20097 4.57789 8.20097 3.14597 9.66333C2.03548 10.7816 1.67019 13.3049 1.67019 13.3049C1.67019 13.3049 1.29028 16.287 1.29028 19.2547V22.0361C1.29028 25.0038 1.67019 27.9716 1.67019 27.9716C1.67019 27.9716 2.03548 30.4949 3.16059 31.6132C4.57789 33.0755 6.4482 33.0325 7.2811 33.1759C10.2765 33.4626 19.9933 33.5486 19.9933 33.5486C19.9933 33.5486 27.8544 33.5343 33.0854 33.1615C33.816 33.0755 35.4087 33.0755 36.8406 31.6132C37.9658 30.4949 38.331 27.9716 38.331 27.9716C38.331 27.9716 38.7096 25.0038 38.7096 22.0361V19.2547C38.695 16.287 38.3151 13.3049 38.3151 13.3049H38.3157ZM16.1352 25.4053V15.097L26.2464 20.2727L16.1352 25.4053Z" fill="#222222"/>
</svg>
