<svg width="32" height="32" viewBox="0 0 32 32" fill="none" xmlns="http://www.w3.org/2000/svg">
<path d="M10.9583 3.19063C9.53049 3.25795 8.55546 3.48586 7.70299 3.82067C6.82088 4.16454 6.07309 4.62583 5.32909 5.3725C4.58521 6.11918 4.12694 6.86741 3.78563 7.75108C3.45529 8.60522 3.23141 9.58114 3.16834 11.0097C3.10527 12.4383 3.09129 12.8976 3.09834 16.5418C3.10527 20.1859 3.12137 20.6427 3.1906 22.0743C3.25881 23.5018 3.48582 24.4766 3.82075 25.3293C4.16518 26.2115 4.62591 26.9589 5.37293 27.7031C6.11983 28.4474 6.86752 28.9045 7.7532 29.2464C8.60667 29.5763 9.58282 29.8011 11.0112 29.8636C12.4396 29.9263 12.8993 29.9408 16.5425 29.9338C20.1856 29.9268 20.6443 29.9106 22.0755 29.8427C23.5069 29.7749 24.4765 29.5462 25.3295 29.2128C26.2117 28.8677 26.9597 28.4077 27.7034 27.6605C28.4471 26.9133 28.905 26.1645 29.2461 25.2804C29.5768 24.4269 29.8014 23.4509 29.8634 22.0235C29.926 20.5911 29.9408 20.1339 29.9338 16.4903C29.9268 12.8466 29.9103 12.3898 29.8425 10.9587C29.7746 9.52768 29.5472 8.5559 29.2125 7.70266C28.8676 6.82045 28.4074 6.07355 27.6608 5.32878C26.9141 4.58401 26.1646 4.12641 25.281 3.78612C24.4268 3.45567 23.4513 3.23056 22.023 3.16883C20.5946 3.1071 20.1348 3.09111 16.4904 3.09826C12.8459 3.1052 12.3896 3.12085 10.9583 3.19063ZM11.1151 27.4495C9.8067 27.3926 9.09626 27.1752 8.62278 26.9933C7.99587 26.7517 7.54922 26.4597 7.07742 25.9924C6.6055 25.5252 6.31575 25.077 6.07096 24.4514C5.88712 23.9779 5.6657 23.2683 5.60452 21.9599C5.53799 20.5458 5.52401 20.1212 5.51618 16.5385C5.50835 12.9559 5.52211 12.5317 5.58406 11.1171C5.63997 9.80982 5.85871 9.0986 6.04032 8.62534C6.28187 7.99766 6.57285 7.5518 7.04119 7.08033C7.50952 6.60876 7.95639 6.31834 8.58252 6.07355C9.05555 5.88892 9.7651 5.6694 11.0729 5.60712C12.4881 5.54002 12.9122 5.5266 16.4944 5.51877C20.0766 5.51095 20.5018 5.52436 21.9175 5.58676C23.2248 5.64357 23.9363 5.86018 24.409 6.04302C25.0362 6.28457 25.4826 6.57465 25.9541 7.04388C26.4256 7.51288 26.7163 7.95818 26.9611 8.58565C27.1459 9.05722 27.3656 9.76655 27.4273 11.0753C27.4946 12.4904 27.5099 12.9148 27.5163 16.4967C27.5228 20.0785 27.5102 20.5039 27.4481 21.9181C27.3911 23.2265 27.1741 23.9371 26.9918 24.4112C26.7503 25.0378 26.4592 25.4847 25.9905 25.9559C25.522 26.4273 25.0757 26.7176 24.4492 26.9624C23.9768 27.1468 23.2664 27.3669 21.9597 27.4292C20.5444 27.4957 20.1203 27.5097 16.5368 27.5175C12.9532 27.5253 12.5303 27.5108 11.1151 27.4495ZM22.0549 9.34384C22.0555 9.66236 22.1505 9.97356 22.3279 10.2381C22.5053 10.5026 22.7572 10.7086 23.0517 10.83C23.3462 10.9514 23.67 10.9827 23.9823 10.92C24.2946 10.8572 24.5813 10.7033 24.8061 10.4777C25.0309 10.252 25.1837 9.96478 25.2453 9.65226C25.3068 9.33975 25.2743 9.016 25.1518 8.72197C25.0293 8.42793 24.8224 8.17683 24.5572 8.00041C24.292 7.82398 23.9804 7.73017 23.6619 7.73084C23.2349 7.73172 22.8258 7.90214 22.5245 8.20462C22.2231 8.5071 22.0542 8.91687 22.0549 9.34384ZM9.62577 16.5294C9.63326 20.3352 12.7241 23.4132 16.5289 23.4061C20.334 23.3988 23.4142 20.3083 23.4071 16.5026C23.3998 12.6969 20.3083 9.61793 16.5028 9.62542C12.6972 9.63291 9.61861 12.7242 9.62577 16.5294ZM12.0429 16.5246C12.0412 15.6399 12.3018 14.7746 12.7919 14.038C13.2819 13.3015 13.9794 12.7268 14.7961 12.3866C15.6128 12.0464 16.512 11.956 17.38 12.1269C18.2481 12.2978 19.0459 12.7222 19.6728 13.3466C20.2996 13.9709 20.7272 14.7671 20.9015 15.6344C21.0758 16.5018 20.989 17.4013 20.6521 18.2193C20.3152 19.0374 19.7433 19.7371 19.0086 20.2301C18.274 20.7231 17.4097 20.9871 16.525 20.9889C15.9376 20.9901 15.3556 20.8756 14.8125 20.6519C14.2693 20.4282 13.7755 20.0997 13.3592 19.6852C12.943 19.2706 12.6126 18.7781 12.3867 18.2358C12.1609 17.6935 12.044 17.1121 12.0429 16.5246Z" fill="#FEFEFE"/>
</svg>
