<svg width="32" height="32" viewBox="0 0 32 32" fill="none" xmlns="http://www.w3.org/2000/svg">
<path d="M30.6526 10.6435C30.6526 10.6435 30.3603 8.6249 29.4602 7.73028C28.3264 6.56038 27.0522 6.56038 26.4561 6.49157C22.2837 6.19336 16.0063 6.19336 16.0063 6.19336H15.9946C15.9946 6.19336 9.71745 6.19336 5.52095 6.49157C4.93649 6.56038 3.66232 6.56038 2.51677 7.73028C1.62838 8.6249 1.33615 10.6435 1.33615 10.6435C1.33615 10.6435 1.03223 13.0292 1.03223 15.4034V17.6285C1.03223 20.0027 1.33615 22.3769 1.33615 22.3769C1.33615 22.3769 1.62838 24.3955 2.52847 25.2901C3.66232 26.46 5.15856 26.4256 5.82488 26.5403C8.2212 26.7697 15.9946 26.8385 15.9946 26.8385C15.9946 26.8385 22.2835 26.8271 26.4683 26.5288C27.0528 26.46 28.327 26.46 29.4725 25.2901C30.3726 24.3955 30.6648 22.3769 30.6648 22.3769C30.6648 22.3769 30.9677 20.0027 30.9677 17.6285V15.4034C30.956 13.0292 30.6521 10.6435 30.6521 10.6435H30.6526ZM12.9081 20.3238V12.0772L20.9971 16.2177L12.9081 20.3238Z" fill="#FEFEFE"/>
</svg>
